<svg viewBox="0 0 24 24" xmlns="http://www.w3.org/2000/svg">
  <path fill="currentColor" d="M12 2C6.5 2 2 6.6 2 12.3c0 4.5 2.9 8.3 6.9 9.6.5.1.7-.2.7-.5v-1.7c-2.8.6-3.4-1.4-3.4-1.4-.4-1.1-1-1.4-1-1.4-.8-.6.1-.6.1-.6.9.1 1.4 1 1.4 1 .8 1.4 2.1 1 2.6.8.1-.6.3-1 .6-1.2-2.2-.3-4.5-1.1-4.5-5 0-1.1.4-2 1-2.8-.1-.2-.4-1.2.1-2.5 0 0 .8-.3 2.7 1a9 9 0 015 0c1.9-1.3 2.7-1 2.7-1 .5 1.3.2 2.3.1 2.5.6.8 1 1.7 1 2.8 0 3.9-2.3 4.7-4.5 5 .3.3.7.9.7 1.9v2.8c0 .3.2.6.7.5A10.3 10.3 0 0022 12.3C22 6.6 17.5 2 12 2z"></path>
</svg>
